<?xml version="1.0" encoding="iso-8859-1"?>
<!-- Uploaded to: SVG Repo, www.svgrepo.com, Generator: SVG Repo Mixer Tools -->
<svg height="800px" width="800px" version="1.1" id="Layer_1" xmlns="http://www.w3.org/2000/svg" xmlns:xlink="http://www.w3.org/1999/xlink" 
	 viewBox="0 0 512 512" xml:space="preserve">
<circle style="fill:#E6E6E6;" cx="256" cy="256" r="256"/>
<path style="fill:#CCCCCC;" d="M510.846,281.056c-11.539,120.006-105.993,215.614-225.175,229.296l-108.63-108.632l-6.429-27.694
	l-21.594-19.451l5.275-10.385l-15.496-13.517l5.275-5.11l-24.891-20.77L355.235,125.28l155.776,155.776L510.846,281.056
	L510.846,281.056z"/>
<path style="fill:#3A99D7;" d="M346.663,421.008l-6.099-83.081c0,0,61.487-59.179,54.563-135.171
	c-6.923-75.827-83.41-123.632-161.051-102.861s-90.499,82.916-90.828,93.136c-0.329,10.221,9.232,36.265,2.308,54.069
	c-6.923,17.804-31.65,45.661-29.341,54.069c2.308,8.407,23.572,9.726,23.572,9.726s0.165,8.078-2.637,9.726
	c-2.803,1.649-1.154,8.407,3.461,12.198c4.615,3.792,12.364,6.264,12.364,6.264s-8.901,1.978-7.747,8.407
	c1.154,6.264,4.286,9.561,10.879,9.726c6.594,0.329,8.407-2.803,9.561,0.66c1.154,3.461,1.814,3.792,1.814,3.792
	s-6.594,17.144-0.824,29.836c5.769,12.693,14.671,12.693,25.056,10.055s30.496-8.407,30.496-8.407l5.44,28.023h118.851
	L346.663,421.008z"/>
<path style="fill:#2682BF;" d="M346.663,421.008l-6.099-83.081c0,0,61.487-59.179,54.563-135.171
	c-5.769-63.134-59.673-106.818-122.478-107.807v326.058h73.849h0.164V421.008z"/>
<path style="fill:#F7F7F8;" d="M243.142,150.996c3.626,0.989,7.253,2.472,10.385,4.286l11.374-9.232l14.176,14.176l-9.232,11.374
	c1.814,3.297,3.297,6.758,4.286,10.385l14.507,1.483v19.946l-14.507,1.483c-0.989,3.626-2.472,7.253-4.286,10.385l9.232,11.374
	L264.9,240.832l-11.374-9.232c-3.297,1.814-6.758,3.297-10.385,4.286l-1.483,14.507h-19.946l-1.483-14.507
	c-3.626-0.989-7.253-2.472-10.385-4.286l-11.374,9.232l-14.176-14.176l9.232-11.374c-1.814-3.297-3.297-6.758-4.286-10.385
	l-14.507-1.483v-19.946l14.507-1.483c0.989-3.626,2.472-7.253,4.286-10.385l-9.232-11.374l14.176-14.176l11.374,9.232
	c3.297-1.814,6.758-3.297,10.385-4.286l1.483-14.507h19.946L243.142,150.996z M231.768,170.282
	c12.693,0,23.078,10.385,23.078,23.078c0,12.693-10.385,23.078-23.078,23.078c-12.693,0-23.078-10.385-23.078-23.078
	C208.691,180.666,219.075,170.282,231.768,170.282z"/>
<path style="fill:#FEFEFE;" d="M305.288,239.516c1.814,0.494,3.461,1.154,4.946,2.143l4.615-3.792l9.561,9.561l-3.957,4.451
	c0.824,1.649,1.483,3.297,1.978,4.946l5.935,0.66v13.517l-5.935,0.329c-0.494,1.814-1.154,3.461-2.143,4.946l3.792,4.615
	l-9.561,9.561l-4.451-3.956c-1.649,0.824-3.297,1.483-4.946,1.978l-0.66,5.935h-13.517l-0.329-5.935
	c-1.814-0.494-3.461-1.154-4.946-2.143l-4.615,3.792l-9.561-9.561l3.957-4.451c-0.824-1.649-1.483-3.297-1.978-4.946l-5.935-0.66
	v-13.517l5.935-0.329c0.494-1.814,1.154-3.461,2.143-4.946l-3.792-4.615l9.561-9.561l4.451,3.956
	c1.649-0.824,3.297-1.483,4.946-1.978l0.66-5.935h13.517L305.288,239.516z M298.034,179.678l8.572-8.572l7.583,6.264
	c1.154-0.494,2.308-0.989,3.461-1.483l0.989-9.89h12.198l0.989,9.89c1.154,0.329,2.308,0.824,3.461,1.483l7.583-6.264l8.572,8.572
	l-6.264,7.583c0.494,1.154,0.989,2.308,1.483,3.461l9.89,0.989v12.198l-9.89,0.989c-0.329,1.154-0.824,2.308-1.483,3.461
	l6.264,7.583l-8.572,8.572l-7.583-6.264c-1.154,0.494-2.308,0.989-3.461,1.483l-0.989,9.89H318.64l-0.989-9.89
	c-1.154-0.329-2.308-0.824-3.461-1.483l-7.583,6.264l-8.572-8.572l6.264-7.583c-0.494-1.154-0.989-2.308-1.483-3.461l-9.89-0.989
	v-12.198l9.89-0.989c0.329-1.154,0.824-2.308,1.483-3.461L298.034,179.678z M324.739,185.612c6.758,0,12.198,5.44,12.198,12.198
	s-5.44,12.198-12.198,12.198c-6.758,0-12.198-5.44-12.198-12.198S317.981,185.612,324.739,185.612z M297.87,254.187
	c5.44,0,9.726,4.451,9.726,9.726c0,5.44-4.451,9.726-9.726,9.726c-5.44,0-9.726-4.451-9.726-9.726
	C288.144,258.472,292.595,254.187,297.87,254.187z"/>
<g>
	<path style="fill:#E6E6E6;" d="M272.814,153.962l6.099,6.099l-6.099,7.418V153.962z M272.814,178.194
		c0.494,1.154,0.824,2.472,1.154,3.626l14.507,1.483v19.946l-14.507,1.483c-0.329,1.154-0.66,2.472-1.154,3.626V178.194z
		 M272.814,218.91l6.099,7.418l-6.099,6.099V218.91z"/>
	<path style="fill:#E6E6E6;" d="M305.288,239.516c1.814,0.494,3.461,1.154,4.946,2.143l4.615-3.792l9.561,9.561l-3.957,4.451
		c0.824,1.649,1.483,3.297,1.978,4.946l5.935,0.66v13.517l-5.935,0.329c-0.494,1.814-1.154,3.461-2.143,4.946l3.792,4.615
		l-9.561,9.561l-4.451-3.956c-1.649,0.824-3.297,1.483-4.946,1.978l-0.66,5.935h-13.517l-0.329-5.935
		c-1.814-0.494-3.461-1.154-4.946-2.143l-4.615,3.792l-8.078-8.078v-3.297l2.308-2.803c-0.824-1.649-1.483-3.297-1.978-4.946h-0.329
		v-14.507h0.329c0.494-1.814,1.154-3.461,2.143-4.946l-2.472-2.967v-2.803l8.242-8.242l4.451,3.956
		c1.649-0.824,3.297-1.483,4.946-1.978l0.66-5.935h13.517l0.329,5.935L305.288,239.516L305.288,239.516z M298.034,179.678
		l8.572-8.572l7.583,6.264c1.154-0.494,2.308-0.989,3.461-1.483l0.989-9.89h12.198l0.989,9.89c1.154,0.329,2.308,0.824,3.461,1.483
		l7.583-6.264l8.572,8.572l-6.264,7.583c0.494,1.154,0.989,2.308,1.483,3.461l9.89,0.989v12.198l-9.89,0.989
		c-0.329,1.154-0.824,2.308-1.483,3.461l6.264,7.583l-8.572,8.572l-7.583-6.264c-1.154,0.494-2.308,0.989-3.461,1.483l-0.989,9.89
		H318.64l-0.989-9.89c-1.154-0.329-2.308-0.824-3.461-1.483l-7.583,6.264l-8.572-8.572l6.264-7.583
		c-0.494-1.154-0.989-2.308-1.483-3.461l-9.89-0.989v-12.198l9.89-0.989c0.329-1.154,0.824-2.308,1.483-3.461L298.034,179.678z
		 M324.739,185.612c6.758,0,12.198,5.44,12.198,12.198s-5.44,12.198-12.198,12.198c-6.758,0-12.198-5.44-12.198-12.198
		S317.981,185.612,324.739,185.612z M297.87,254.187c5.44,0,9.726,4.451,9.726,9.726c0,5.44-4.451,9.726-9.726,9.726
		c-5.44,0-9.726-4.451-9.726-9.726C288.144,258.472,292.595,254.187,297.87,254.187z"/>
</g>
</svg>