<?xml version="1.0" encoding="UTF-8"?>
<!-- Uploaded to: SVG Repo, www.svgrepo.com, Generator: SVG Repo Mixer Tools -->
<svg width="800px" height="800px" viewBox="0 -1 20 20" version="1.1" xmlns="http://www.w3.org/2000/svg" xmlns:xlink="http://www.w3.org/1999/xlink">
    <title>image / 39 - image, landscape, picture, image icon</title>
    <g id="Free-Icons" stroke="none" stroke-width="1" fill="none" fill-rule="evenodd">
        <g transform="translate(-599.000000, -601.000000)" id="Group">
            <g transform="translate(597.000000, 598.000000)" id="Shape">
                <path d="M5,4 L19,4 C20.1045695,4 21,4.8954305 21,6 L21,18 C21,19.1045695 20.1045695,20 19,20 L5,20 C3.8954305,20 3,19.1045695 3,18 L3,6 C3,4.8954305 3.8954305,4 5,4 Z" stroke="#000000" stroke-width="2" stroke-linecap="round" stroke-linejoin="round">
</path>
                <path d="M3,15.7499831 L7.71965625,11.0303269 C7.86030854,10.8896745 8.051074,10.8106569 8.24998641,10.8106569 C8.44889881,10.8106569 8.63966427,10.8896745 8.78031656,11.0303269 L12.9696563,15.2196675 C13.1103085,15.3603198 13.301074,15.4393375 13.4999864,15.4393375 C13.6988988,15.4393375 13.8896643,15.3603198 14.0303166,15.2196675 L15.9696563,13.2803269 C16.1103085,13.1396745 16.301074,13.0606569 16.4999864,13.0606569 C16.6988988,13.0606569 16.8896643,13.1396745 17.0303166,13.2803269 L20.9999831,17.25" stroke="#000000" stroke-width="2" stroke-linecap="round" stroke-linejoin="round">
</path>
                <circle fill="#000000" cx="16.5" cy="8.5" r="1.5">
</circle>
            </g>
        </g>
    </g>
</svg>